<svg width="42" height="43" viewBox="0 0 42 43" fill="none" xmlns="http://www.w3.org/2000/svg">
<path d="M14.048 33.3754C14.048 33.5434 13.8532 33.6777 13.6077 33.6777C13.3282 33.7029 13.1335 33.5686 13.1335 33.3754C13.1335 33.2074 13.3282 33.073 13.5738 33.073C13.8278 33.0479 14.048 33.1822 14.048 33.3754ZM11.4145 32.9975C11.3552 33.1654 11.5246 33.3586 11.7786 33.409C11.9988 33.493 12.2528 33.409 12.3036 33.241C12.3544 33.073 12.1935 32.8799 11.9395 32.8043C11.7194 32.7455 11.4738 32.8295 11.4145 32.9975ZM15.1573 32.8547C14.9117 32.9135 14.7423 33.073 14.7677 33.2662C14.7931 33.4342 15.0133 33.5434 15.2673 33.4846C15.5129 33.4258 15.6823 33.2662 15.6569 33.0982C15.6315 32.9387 15.4028 32.8295 15.1573 32.8547ZM20.729 0.671875C8.98427 0.671875 0 9.51543 0 21.1641C0 30.4779 5.91048 38.448 14.3528 41.2531C15.4367 41.4463 15.8177 40.7828 15.8177 40.2369C15.8177 39.7162 15.7923 36.8439 15.7923 35.0803C15.7923 35.0803 9.86492 36.34 8.62016 32.5775C8.62016 32.5775 7.65484 30.1336 6.26613 29.5037C6.26613 29.5037 4.32702 28.1852 6.40161 28.2104C6.40161 28.2104 8.51008 28.3783 9.67016 30.3771C11.5246 33.6189 14.6323 32.6867 15.8431 32.1324C16.0379 30.7887 16.5883 29.8564 17.198 29.3021C12.4645 28.7814 7.68871 28.1012 7.68871 20.0219C7.68871 17.7123 8.33226 16.5533 9.6871 15.0752C9.46694 14.5293 8.74718 12.2785 9.90726 9.37266C11.677 8.82676 15.75 11.6402 15.75 11.6402C17.4435 11.1699 19.2641 10.9264 21.0677 10.9264C22.8714 10.9264 24.6919 11.1699 26.3855 11.6402C26.3855 11.6402 30.4585 8.81836 32.2282 9.37266C33.3883 12.2869 32.6685 14.5293 32.4484 15.0752C33.8032 16.5617 34.6331 17.7207 34.6331 20.0219C34.6331 28.1264 29.6456 28.773 24.9121 29.3021C25.6911 29.9656 26.3516 31.2254 26.3516 33.199C26.3516 36.0293 26.3262 39.5314 26.3262 40.2201C26.3262 40.766 26.7157 41.4295 27.7911 41.2363C36.2589 38.448 42 30.4779 42 21.1641C42 9.51543 32.4738 0.671875 20.729 0.671875ZM8.23065 29.6381C8.12056 29.7221 8.14597 29.9152 8.28992 30.0748C8.4254 30.2092 8.62016 30.268 8.73024 30.1588C8.84032 30.0748 8.81492 29.8816 8.67097 29.7221C8.53548 29.5877 8.34073 29.5289 8.23065 29.6381ZM7.31613 28.9578C7.25686 29.067 7.34153 29.2014 7.51089 29.2854C7.64637 29.3693 7.81573 29.3441 7.875 29.2266C7.93427 29.1174 7.8496 28.983 7.68024 28.899C7.51089 28.8486 7.3754 28.8738 7.31613 28.9578ZM10.0597 31.9477C9.92419 32.0568 9.975 32.3088 10.1698 32.4684C10.3645 32.6615 10.6101 32.6867 10.7202 32.5523C10.8302 32.4432 10.7794 32.1912 10.6101 32.0316C10.4238 31.8385 10.1698 31.8133 10.0597 31.9477ZM9.09436 30.7131C8.95887 30.7971 8.95887 31.0154 9.09436 31.2086C9.22984 31.4018 9.45847 31.4857 9.56855 31.4018C9.70403 31.2926 9.70403 31.0742 9.56855 30.8811C9.45 30.6879 9.22984 30.6039 9.09436 30.7131Z" fill="#F0F1F2"/>
</svg>
